<?xml version="1.0" standalone="no"?>
<!DOCTYPE svg PUBLIC "-//W3C//DTD SVG 20010904//EN"
 "http://www.w3.org/TR/2001/REC-SVG-20010904/DTD/svg10.dtd">
<svg version="1.0" xmlns="http://www.w3.org/2000/svg"
 width="225.000000pt" height="225.000000pt" viewBox="0 0 225.000000 225.000000"
 preserveAspectRatio="xMidYMid meet">
<metadata>
Created by potrace 1.16, written by Peter Selinger 2001-2019
</metadata>
<g transform="translate(0.000000,225.000000) scale(0.100000,-0.100000)"
fill="#000000" stroke="none">
<path d="M358 2090 c-133 -23 -259 -125 -308 -251 l-25 -64 0 -360 0 -360 25
-63 c47 -120 177 -226 299 -247 l41 -7 2 -286 3 -285 56 49 c151 134 344 306
429 384 52 48 109 99 126 113 l31 26 445 3 444 3 76 38 c95 46 162 117 198
209 l25 63 0 360 0 360 -25 64 c-50 130 -174 228 -317 251 -70 12 -1457 11
-1525 0z m408 -604 c29 -29 34 -41 34 -83 0 -28 -7 -58 -16 -71 -39 -56 -132
-69 -183 -27 -59 50 -62 129 -6 189 20 22 33 26 81 26 50 0 59 -3 90 -34z
m491 3 c58 -55 55 -129 -5 -179 -125 -103 -277 65 -165 182 23 24 34 28 83 28
49 0 60 -4 87 -31z m473 21 c29 -16 60 -74 60 -115 0 -30 -8 -45 -39 -76 -33
-33 -45 -39 -82 -39 -49 0 -95 25 -115 62 -28 50 -9 129 38 162 25 18 109 21
138 6z"/>
</g>
</svg>
